<?xml version="1.0" encoding="UTF-8" standalone="no"?>
<!-- Created with Inkscape (http://www.inkscape.org/) -->

<svg
   version="1.1"
   id="svg1241"
   xml:space="preserve"
   width="1133.3333"
   height="933.34003"
   viewBox="0 0 1133.3333 933.34003"
   sodipodi:docname="template-door-switch.svg"
   inkscape:version="1.1.1 (3bf5ae0d25, 2021-09-20)"
   xmlns:inkscape="http://www.inkscape.org/namespaces/inkscape"
   xmlns:sodipodi="http://sodipodi.sourceforge.net/DTD/sodipodi-0.dtd"
   xmlns="http://www.w3.org/2000/svg"
   xmlns:svg="http://www.w3.org/2000/svg"><defs
     id="defs1245"><clipPath
       clipPathUnits="userSpaceOnUse"
       id="clipPath1255"><path
         d="M 0,700.005 H 850 V 0 H 0 Z"
         id="path1253" /></clipPath></defs><sodipodi:namedview
     id="namedview1243"
     pagecolor="#ffffff"
     bordercolor="#111111"
     borderopacity="1"
     inkscape:pageshadow="0"
     inkscape:pageopacity="0"
     inkscape:pagecheckerboard="1"
     showgrid="false"
     inkscape:zoom="0.86999376"
     inkscape:cx="566.67073"
     inkscape:cy="-176.43805"
     inkscape:window-width="1920"
     inkscape:window-height="1001"
     inkscape:window-x="-9"
     inkscape:window-y="-9"
     inkscape:window-maximized="1"
     inkscape:current-layer="g1247" /><g
     id="g1247"
     inkscape:groupmode="layer"
     inkscape:label="template-door-switch"
     transform="matrix(1.3333333,0,0,-1.3333333,0,933.34)"><g
       id="g1249"><g
         id="g1251"
         clip-path="url(#clipPath1255)"><g
           id="g1257"
           transform="translate(198.1694,519.8456)"><path
             d="m 0,0 c -1.377,11.082 -4.291,24.961 -5.06,45 -1.196,27.416 2.135,47.829 4.639,63.001 C 5.781,145.586 21.18,151 21.18,151 l 2.934,11 h -47.417 l -0.918,-9 v -284.5 c 0,-11.874 -9.626,-21.5 -21.5,-21.5 h -70.893 c -11.934,0 -21.607,9.674 -21.607,21.607 v 26.906 l 17.892,-3 v 55.853 c -0.61,-0.065 -1.229,-0.103 -1.857,-0.103 -7.305,0 -13.522,4.551 -16.035,10.965 v 34.17 l 18,-3 v 61.854 c -0.611,-0.065 -1.23,-0.104 -1.858,-0.104 -7.412,0 -13.704,4.687 -16.142,11.251 v 83.934 l -1,14.667 h -27.576 -12.134 c 0,0 -0.824,-13.485 -1.351,-14.032 -4.214,-4.373 -3.938,-10.882 -3.938,-16.568 0,0 -1,-86.253 -1,-128.327 0,-42.075 1,-112.073 1,-112.073 l 9,-115 c 0,0 146.5,27 152.999,29.581 6.498,2.58 37.001,12.919 44.001,41.251 4,10.168 -2.081,73.147 -2.081,73.147 L 18.53,-59.125 C 18.53,-59.125 5.114,-42.333 0,0"
             style="fill:#000000;fill-opacity:1;fill-rule:nonzero;stroke:none"
             id="path1259" /></g><g
           id="g1261"
           transform="translate(129.0264,546.8138)"><path
             d="m 0,0 h -7.625 c -0.791,0 -1.438,0.647 -1.438,1.437 0,0.791 0.647,1.438 1.438,1.438 H 0 C 0.791,2.875 1.437,2.228 1.437,1.437 1.437,0.647 0.791,0 0,0 m -31.188,-72.836 h 54.751 v 92.88 h -54.751 z"
             style="fill:#000000;fill-opacity:1;fill-rule:nonzero;stroke:none"
             id="path1263" /></g><g
           id="g1265"
           transform="translate(129.0264,449.4462)"><path
             d="m 0,0 h -7.625 c -0.791,0 -1.438,0.647 -1.438,1.437 0,0.791 0.647,1.438 1.438,1.438 H 0 C 0.791,2.875 1.437,2.228 1.437,1.437 1.437,0.647 0.791,0 0,0 m -31.188,-72.836 h 54.751 v 92.88 h -54.751 z"
             style="fill:#000000;fill-opacity:1;fill-rule:nonzero;stroke:none"
             id="path1267" /></g><g
           id="g1269"
           transform="translate(128.9648,600.307)"><path
             d="m 0,0 h -7.578 c -0.803,0 -1.461,0.658 -1.461,1.461 0,0.804 0.658,1.461 1.461,1.461 H 0 C 0.803,2.922 1.461,2.265 1.461,1.461 1.461,0.658 0.803,0 0,0 m -30.631,20.068 0.077,-47.24 c -0.042,-0.975 0.737,-1.789 1.714,-1.789 H 2.361 c 11.428,0 18.692,9.264 18.692,20.692 l 2,28.337 z"
             style="fill:#000000;fill-opacity:1;fill-rule:nonzero;stroke:none"
             id="path1271" /></g><g
           id="g1273"
           transform="translate(119.9639,655.285)"><path
             d="M 0,0 C 0,0.803 0.658,1.461 1.461,1.461 H 9.039 C 9.842,1.461 10.5,0.803 10.5,0 10.5,-0.804 9.842,-1.461 9.039,-1.461 H 1.461 C 0.658,-1.461 0,-0.804 0,0 m -21.592,18.606 2,-28.336 c 0,-11.428 7.264,-20.692 18.692,-20.692 h 31.201 c 0.977,0 1.756,0.814 1.714,1.789 l 0.077,47.239 z"
             style="fill:#000000;fill-opacity:1;fill-rule:nonzero;stroke:none"
             id="path1275" /></g><g
           id="g1277"
           transform="translate(753.1289,424.1293)"><path
             d="m 0,0 c -0.271,-7.721 -6.748,-13.762 -14.469,-13.492 l -28.862,1.008 c -7.722,0.27 -13.762,6.747 -13.492,14.468 l 2.495,71.449 c 0.269,7.721 6.747,13.762 14.469,13.492 l 28.862,-1.008 C -3.276,85.648 2.765,79.17 2.494,71.449 Z m 73.064,243.685 c -0.527,0.546 -3.35,14.032 -3.35,14.032 H 57.579 48.592 34.477 l 3.231,-90.03 c -0.039,-4.501 -3.72,-8.119 -8.222,-8.08 L -72.1,162.459 c -4.561,0.04 -8.226,3.77 -8.186,8.331 l 0.35,40.252 0.408,46.675 h -6.386 -6.768 -32.649 l 2.934,-11 c 0,0 15.399,-5.414 21.601,-43 2.504,-15.172 0.835,-35.585 -0.361,-63 -5.204,-38.348 -8.704,-54.848 -11.204,-63.348 -2.5,-8.5 -15.387,-40.777 -15.387,-40.777 l -1.169,-20.897 c 0,0 -6.081,-62.978 -2.081,-73.147 7,-28.331 37.504,-38.671 44.002,-41.251 6.498,-2.58 154.998,-29.58 154.998,-29.58 l 0.645,27.651 8.355,87.349 c 0,0 4,69.997 4,112.072 0,18.767 1.403,46.324 0.742,71.096 -0.341,12.756 -0.698,24.773 -1,34.471 -0.427,13.691 -1.742,22.761 -1.742,22.761 0,0 -1.724,12.194 -5.938,16.568"
             style="fill:#000000;fill-opacity:1;fill-rule:nonzero;stroke:none"
             id="path1279" /></g><g
           id="g1281"
           transform="translate(738.4141,643.996)"><path
             d="m 0,0 c 0,0.743 -0.657,1.351 -1.461,1.502 h -0.038 -7.54 -0.037 C -9.88,1.351 -10.538,0.743 -10.538,0 c 0,-0.743 0.658,-1.351 1.462,-1.498 h 0.037 7.54 0.038 C -0.657,-1.351 0,-0.743 0,0 m 7.504,-28.498 h -25.545 c -7.377,0 -12.389,5.817 -12.545,13.092 L -32.33,18.502 H 21.792 L 20.049,-15.406 C 19.892,-22.681 14.881,-28.498 7.504,-28.498"
             style="fill:#000000;fill-opacity:1;fill-rule:nonzero;stroke:none"
             id="path1283" /></g><g
           id="g1285"
           transform="translate(430.5327,558.9257)"><path
             d="M 0,0 C 0.013,0.743 -0.634,1.363 -1.435,1.527 L -1.473,1.528 -9.012,1.66 h -0.037 c -0.806,-0.137 -1.474,-0.733 -1.488,-1.476 -0.013,-0.743 0.634,-1.362 1.435,-1.523 l 0.038,-0.001 7.539,-0.132 h 0.038 C -0.681,-1.339 -0.013,-0.743 0,0 m 7.005,-28.625 -25.542,0.446 c -7.375,0.129 -12.284,6.033 -12.314,13.309 l -1.151,33.933 54.114,-0.944 -2.336,-33.872 c -0.283,-7.272 -5.395,-13 -12.771,-12.872"
             style="fill:#000000;fill-opacity:1;fill-rule:nonzero;stroke:none"
             id="path1287" /></g><g
           id="g1289"
           transform="translate(429.5327,495.9257)"><path
             d="M 0,0 C 0.013,0.743 -0.634,1.363 -1.435,1.527 L -1.473,1.528 -9.012,1.66 h -0.037 c -0.806,-0.137 -1.474,-0.733 -1.488,-1.476 -0.013,-0.743 0.634,-1.362 1.435,-1.523 l 0.038,-0.001 7.539,-0.132 h 0.038 C -0.681,-1.339 -0.013,-0.743 0,0 m 7.005,-28.625 -25.542,0.446 c -7.375,0.129 -12.284,6.033 -12.314,13.309 l -1.151,33.933 54.114,-0.944 -2.336,-33.872 c -0.283,-7.272 -5.395,-13 -12.771,-12.872"
             style="fill:#000000;fill-opacity:1;fill-rule:nonzero;stroke:none"
             id="path1291" /></g><g
           id="g1293"
           transform="translate(558.2998,447.0946)"><path
             d="m 0,0 -2.634,-75.446 c -0.27,-7.721 -6.748,-13.762 -14.469,-13.492 l -28.862,1.007 c -7.722,0.27 -13.762,6.748 -13.492,14.469 l 2.635,75.446 c 0.269,7.722 3.644,10.869 11.365,10.599 l 34.858,-1.217 C -2.877,11.096 0.27,7.721 0,0 m 41.29,151.565 c -0.387,12.435 -4.221,38.051 -4.921,42.646 -0.017,0.118 0.037,4.716 0.593,6.715 0.557,2 7.224,14.5 7.224,14.5 0,0 -2.421,7.58 -2.877,9.79 -0.457,2.21 -1.049,9.71 -1.049,9.71 h -169.045 l 3.064,-46.731 c 0.21,-4.409 1.002,-9.499 3.869,-12.269 1.038,-0.682 13.538,-8.348 17.391,-22.572 1.629,-6.011 5.302,-13.855 7.211,-25.428 2.504,-15.172 2.675,-50.486 1.639,-63 -1.037,-12.515 -6.203,-54.182 -8.203,-64.348 -2,-10.167 -7.417,-33.75 -7.417,-33.75 0,0 -2.083,-10.25 -7.139,-17.924 -0.611,-4.66 -2.081,-51.978 1.919,-62.147 7,-28.331 37.503,-35.67 44.001,-38.251 6.499,-2.58 107.643,-13.929 107.643,-13.929 l 3.356,99.349 c 0,0 4,69.997 4,112.072 0,18.767 0.402,46.324 -0.259,71.096 -0.34,12.756 -0.698,24.773 -1,34.471"
             style="fill:#000000;fill-opacity:1;fill-rule:nonzero;stroke:none"
             id="path1295" /></g><g
           id="g1297"
           transform="translate(300.2983,458.4603)"><path
             d="M 0,0 34.859,1.217 C 42.58,1.487 45.955,-1.66 46.224,-9.381 l 2.635,-75.447 c 0.269,-7.721 -5.771,-14.199 -13.492,-14.468 l -28.863,-1.008 c -7.721,-0.27 -14.198,5.771 -14.468,13.492 l -2.635,75.446 C -10.868,-3.645 -7.721,-0.27 0,0 m -52.889,105.728 c -0.661,-24.771 -0.257,-52.329 -0.257,-71.096 0,-42.075 4,-112.072 4,-112.072 l 3.354,-99.349 c 0,0 101.146,11.349 107.644,13.93 6.498,2.58 37.002,9.919 44.002,38.25 4,10.169 2.529,57.487 1.918,62.148 -5.055,7.673 -7.139,17.923 -7.139,17.923 0,0 -5.416,23.583 -7.416,33.75 -2,10.166 -7.167,51.833 -8.204,64.348 -1.036,12.515 -0.865,47.829 1.639,63.001 1.91,11.572 5.582,19.417 7.211,25.428 3.854,14.223 16.354,21.889 17.39,22.571 2.868,2.771 3.66,7.86 3.87,12.27 l 3.064,46.73 H -50.858 c 0,0 -0.592,-7.5 -1.048,-9.71 -0.457,-2.209 -2.877,-9.79 -2.877,-9.79 0,0 6.666,-12.5 7.222,-14.499 0.557,-2 0.611,-6.598 0.593,-6.715 -0.7,-4.596 -4.533,-30.211 -4.92,-42.646 -0.302,-9.699 -0.66,-21.716 -1.001,-34.472"
             style="fill:#000000;fill-opacity:1;fill-rule:nonzero;stroke:none"
             id="path1299" /></g><g
           id="g1301"
           transform="translate(242.2344,267.5052)"><path
             d="m 0,0 h 106.566 c 1.771,0 3.2,-1.446 3.18,-3.217 l -1.926,-164.64 c -0.021,-1.742 -1.438,-3.143 -3.179,-3.143 H 1.926 c -1.742,0 -3.159,1.401 -3.179,3.143 L -3.179,-3.217 C -3.2,-1.446 -1.771,0 0,0"
             style="fill:#000000;fill-opacity:1;fill-rule:nonzero;stroke:none"
             id="path1303" /></g><g
           id="g1305"
           transform="translate(504.3359,267.4427)"><path
             d="m 0,0 98.189,0.062 c 3.582,0.003 6.47,-2.862 6.419,-6.366 l -1.882,-131.436 c -0.05,-3.436 -2.91,-6.198 -6.42,-6.2 L 1.709,-144 c -3.514,-0.003 -6.374,2.76 -6.419,6.198 L -6.42,-6.367 C -6.465,-2.866 -3.577,-0.002 0,0"
             style="fill:#000000;fill-opacity:1;fill-rule:nonzero;stroke:none"
             id="path1307" /></g><g
           id="g1309"
           transform="translate(89.519,238.3246)"><path
             d="m 0,0 c 1.21,-5.219 -19.183,-54.605 -21.581,-57.72 -5.523,-9.728 -14.227,-9.344 -24.441,-8.699 -14.916,0.943 -16.783,3.8 -16.776,10.43 l -0.368,34.381 c 0,0 0.493,22.424 1.854,26.459 0.943,3.316 5.719,2.946 5.956,2.913 L -11.021,7.27 C -3.344,7.351 -1.211,5.218 0,0 m -19.284,-193.782 c -0.008,17.473 -1.76,39.898 1.24,63.667 2.184,17.302 3.767,34.203 7.003,48.332 1.445,6.31 22.004,58.572 34.424,89.897 1.763,4.446 1.346,25.493 1.346,25.493 0,0 -87.607,-0.791 -93.611,0.063 -6.003,0.854 -14.661,1.801 -14.661,1.801 0,0 7.127,-14.718 6.815,-18.737 -1.57,-20.238 11.254,-172.38 11.918,-177.775 0.384,-3.12 4.216,-49.402 4.059,-52.193 -0.154,-3.306 -0.994,-9.04 -0.994,-9.04 0,0 43.003,0.482 45.347,0.416 -0.067,0.158 -2.882,19.839 -2.886,28.076"
             style="fill:#000000;fill-opacity:1;fill-rule:nonzero;stroke:none"
             id="path1311" /></g><g
           id="g1313"
           transform="translate(97.772,46.1078)"><path
             d="M 0,0 13.174,2.19 C 14.571,2.423 15.822,1.965 15.954,1.172 16.085,0.379 15.05,-0.46 13.653,-0.691 L 0.479,-2.882 C -0.918,-3.114 -2.169,-2.656 -2.3,-1.863 -2.432,-1.07 -1.397,-0.231 0,0 m -17.497,13.401 6.29,-31.259 c 1.537,-6.228 3.093,-8.691 16.845,-6.967 9.418,1.18 17.832,1.797 21.18,11.617 1.645,3.253 9.695,52.845 10.404,57.408 0.063,1.299 -1.556,6.201 -8.537,4.799 l -43.242,-7.311 c -0.221,-0.011 -4.722,-0.61 -4.921,-3.686 -0.541,-3.911 0.029,-13.594 1.981,-24.601"
             style="fill:#000000;fill-opacity:1;fill-rule:nonzero;stroke:none"
             id="path1315" /></g><g
           id="g1317"
           transform="translate(754.624,44.2445)"><path
             d="m 0,0 c -0.132,-0.793 -1.383,-1.251 -2.78,-1.019 l -13.174,2.191 c -1.398,0.231 -2.433,1.07 -2.301,1.863 0.132,0.793 1.383,1.251 2.78,1.019 L -2.301,1.863 C -0.903,1.632 0.132,0.793 0,0 m 17.178,39.865 c -0.199,3.076 -4.7,3.675 -4.922,3.686 l -43.241,7.311 c -6.982,1.403 -8.6,-3.5 -8.537,-4.799 0.708,-4.563 8.758,-54.155 10.403,-57.408 3.348,-9.82 11.762,-10.436 21.18,-11.617 13.752,-1.724 15.309,0.739 16.845,6.967 l 6.289,31.26 c 1.953,11.006 2.524,20.689 1.983,24.6"
             style="fill:#000000;fill-opacity:1;fill-rule:nonzero;stroke:none"
             id="path1319" /></g><g
           id="g1321"
           transform="translate(202.8755,238.6635)"><path
             d="m 0,0 c -1.583,-4.722 -19.169,-55.963 -21.509,-59.12 -5.346,-9.827 -14.074,-8.603 -24.298,-8.143 -14.93,0.673 -16.849,3.494 -16.963,10.123 l -0.993,34.369 c -0.071,12.053 1.086,22.449 2.373,26.506 0.883,3.333 5.665,3.05 5.902,3.022 l 45.336,0.33 C -2.477,7.307 0.304,1.369 0,0 m 33.149,32.215 c 0,0 -95.613,-0.528 -101.631,0.216 -6.018,0.744 -12.692,1.57 -12.692,1.57 0,0 5.394,-14.622 5.155,-18.646 -1.202,-20.262 14.384,-172.148 15.146,-177.529 0.441,-3.112 5.114,-49.317 5.007,-52.11 -0.093,-3.309 -0.865,-7.058 -0.865,-7.058 0,0 22.009,-0.117 24.354,-0.141 -0.591,1.333 -1.644,5.727 -1.547,6.675 0.024,23.95 -0.644,85.042 -0.114,91.732 1.117,8.822 3.407,18.561 6.644,27.223 23.847,52.108 60.543,128.068 60.543,128.068"
             style="fill:#000000;fill-opacity:1;fill-rule:nonzero;stroke:none"
             id="path1323" /></g><g
           id="g1325"
           transform="translate(372.5674,223.0531)"><path
             d="m 0,0 13.354,-0.065 c 1.417,-0.007 2.572,-0.671 2.568,-1.474 -0.004,-0.804 -1.166,-1.456 -2.582,-1.449 l -13.355,0.065 c -1.416,0.007 -2.571,0.671 -2.568,1.474 C -2.579,-0.646 -1.417,0.007 0,0 m -14.983,16.163 0.921,-31.873 c 0.463,-6.397 1.581,-9.088 15.427,-9.712 9.482,-0.427 17.88,-1.239 22.838,7.875 2.17,2.929 18.479,50.448 19.947,54.827 0.282,1.27 -0.486,6.375 -7.604,6.171 l -43.855,0.096 c -0.22,0.025 -4.758,0.196 -5.473,-2.802 -1.194,-3.764 -2.267,-13.404 -2.201,-24.582"
             style="fill:#000000;fill-opacity:1;fill-rule:nonzero;stroke:none"
             id="path1327" /></g><g
           id="g1329"
           transform="translate(771.5029,245.5941)"><path
             d="m 0,0 44.334,0.494 c 0.237,0.033 5.013,0.403 5.956,-2.913 1.36,-4.034 1.855,-26.459 1.855,-26.459 l -0.37,-34.381 c 0.008,-6.63 -1.859,-9.486 -16.775,-10.429 -10.214,-0.646 -18.918,-1.03 -24.441,8.699 -2.398,3.114 -22.791,52.501 -21.58,57.719 C -9.812,-2.052 -7.678,0.081 0,0 m 5.376,-229.128 c 2.344,0.066 45.347,-0.416 45.347,-0.416 0,0 -0.84,5.734 -0.994,9.04 -0.158,2.791 3.675,49.073 4.059,52.193 0.664,5.395 13.488,157.538 11.918,177.776 -0.312,4.018 6.815,18.736 6.815,18.736 0,0 -8.658,-0.947 -14.661,-1.801 -6.004,-0.853 -93.611,-0.063 -93.611,-0.063 0,0 -0.416,-21.047 1.346,-25.492 12.42,-31.325 32.979,-83.587 34.425,-89.898 3.235,-14.129 4.818,-31.03 7.002,-48.332 3,-23.768 1.249,-46.193 1.241,-63.667 -0.004,-8.236 -2.821,-27.918 -2.887,-28.076"
             style="fill:#000000;fill-opacity:1;fill-rule:nonzero;stroke:none"
             id="path1331" /></g><g
           id="g1333"
           transform="translate(655.2764,245.7504)"><path
             d="m 0,0 45.336,-0.33 c 0.237,0.028 5.019,0.311 5.901,-3.022 1.288,-4.057 2.445,-14.453 2.373,-26.505 l -0.993,-34.37 c -0.113,-6.628 -2.032,-9.45 -16.962,-10.123 -10.224,-0.46 -18.952,-1.684 -24.298,8.143 -2.34,3.157 -19.925,54.398 -21.509,59.12 C -10.455,-5.718 -7.675,0.22 0,0 m 17.242,-102.939 c 3.237,-8.663 5.528,-18.402 6.645,-27.224 0.529,-6.69 -0.139,-67.782 -0.116,-91.732 0.098,-0.948 -0.956,-5.342 -1.545,-6.675 2.344,0.024 24.353,0.141 24.353,0.141 0,0 -0.771,3.749 -0.865,7.058 -0.108,2.793 4.565,48.998 5.007,52.11 0.761,5.381 16.348,157.267 15.146,177.53 -0.239,4.023 5.155,18.646 5.155,18.646 0,0 -6.673,-0.827 -12.692,-1.571 -6.017,-0.744 -101.631,-0.216 -101.631,-0.216 0,0 36.697,-75.96 60.543,-128.067"
             style="fill:#000000;fill-opacity:1;fill-rule:nonzero;stroke:none"
             id="path1335" /></g><path
           d="m 542.881,36.357 h -34.984 v 15.744 h 34.984 z m -203.777,0 H 304.12 v 15.744 h 34.984 z m 305.952,53.725 c 0,0 -16.125,-22 -40.75,-22.125 C 594.63,66.95 508.665,66.446 424,66.446 c -84.665,0 -170.629,0.504 -180.305,1.511 -24.625,0.125 -40.75,22.125 -40.75,22.125 l -11.5,20.375 c 0,0 0.608,-17.552 1.125,-23.75 1.18,-14.164 4.223,-45.071 21,-56.875 25.583,-18 62.331,-16.142 103.997,-16.911 30.21,-0.556 99.835,-0.473 106.433,-0.464 6.598,-0.009 76.223,-0.092 106.434,0.464 41.666,0.769 78.413,-1.089 103.997,16.911 16.776,11.804 19.819,42.711 21,56.875 0.515,6.198 1.125,23.75 1.125,23.75 z"
           style="fill:#000000;fill-opacity:1;fill-rule:nonzero;stroke:none"
           id="path1337" /><g
           id="g1339"
           transform="translate(478.8057,221.6039)"><path
             d="m 0,0 c 0.004,-0.803 -1.151,-1.467 -2.567,-1.474 l -13.355,-0.065 c -1.417,-0.007 -2.578,0.645 -2.583,1.449 -0.004,0.803 1.152,1.467 2.568,1.474 L -2.582,1.449 C -1.166,1.456 -0.004,0.804 0,0 M 10.2,42.194 C 9.484,45.192 4.946,45.021 4.727,44.996 L -39.128,44.9 c -7.118,0.204 -7.886,-4.901 -7.604,-6.171 1.468,-4.378 17.777,-51.898 19.947,-54.827 4.958,-9.114 13.355,-8.301 22.838,-7.875 13.845,0.624 14.964,3.315 15.426,9.712 L 12.4,17.612 c 0.067,11.178 -1.006,20.819 -2.2,24.582"
             style="fill:#000000;fill-opacity:1;fill-rule:nonzero;stroke:none"
             id="path1341" /></g><g
           id="g1343"
           transform="translate(459.9551,107.7797)"><path
             d="m 0,0 h -70.879 c -7.371,0 -11.82,5.635 -13.218,9.617 H 13.176 C 11.777,5.635 6.905,0 0,0 M 13.769,34.952 C 12.37,30.97 7.498,25.335 0.593,25.335 h -70.879 c -7.414,0 -11.819,5.635 -13.218,9.617 z M 13.176,59.779 C 11.777,55.797 6.905,50.162 0,50.162 h -70.879 c -7.371,0 -11.82,5.635 -13.218,9.617 z m -48.34,36.111 c -36.451,0 -66,-29.549 -66,-66 0,-36.452 29.549,-66 66,-66 36.45,0 66,29.548 66,66 0,36.451 -29.55,66 -66,66"
             style="fill:#000000;fill-opacity:1;fill-rule:nonzero;stroke:none"
             id="path1345" /></g><g
           id="g1347"
           transform="translate(1,286.0052)"><path
             d="m 0,0 h 236 l 6,-10 h 357 l 10,8 239,-1"
             style="fill:none;stroke:#ff0000;stroke-width:1;stroke-linecap:butt;stroke-linejoin:miter;stroke-miterlimit:10;stroke-dasharray:none;stroke-opacity:1"
             id="path1349" /></g><g
           id="g1351"
           transform="translate(232,285.5052)"><path
             d="M 0,0 V 414"
             style="fill:none;stroke:#ff0000;stroke-width:1;stroke-linecap:butt;stroke-linejoin:miter;stroke-miterlimit:10;stroke-dasharray:none;stroke-opacity:1"
             id="path1353" /></g><g
           id="g1355"
           transform="translate(613,283.5052)"><path
             d="M 0,0 V 416"
             style="fill:none;stroke:#ff0000;stroke-width:1;stroke-linecap:butt;stroke-linejoin:miter;stroke-miterlimit:10;stroke-dasharray:none;stroke-opacity:1"
             id="path1357" /></g></g></g></g></svg>
