<?xml version="1.0" encoding="UTF-8" standalone="no"?>
<!-- Created with Inkscape (http://www.inkscape.org/) -->

<svg
   version="1.1"
   id="svg1109"
   xml:space="preserve"
   width="911.03998"
   height="558.71997"
   viewBox="0 0 911.03998 558.71997"
   sodipodi:docname="template-door-handles.svg"
   inkscape:version="1.1.1 (3bf5ae0d25, 2021-09-20)"
   xmlns:inkscape="http://www.inkscape.org/namespaces/inkscape"
   xmlns:sodipodi="http://sodipodi.sourceforge.net/DTD/sodipodi-0.dtd"
   xmlns="http://www.w3.org/2000/svg"
   xmlns:svg="http://www.w3.org/2000/svg"><defs
     id="defs1113"><clipPath
       clipPathUnits="userSpaceOnUse"
       id="clipPath1123"><path
         d="M 0,419.04 H 683.28 V 0 H 0 Z"
         id="path1121" /></clipPath></defs><sodipodi:namedview
     id="namedview1111"
     pagecolor="#ffffff"
     bordercolor="#111111"
     borderopacity="1"
     inkscape:pageshadow="0"
     inkscape:pageopacity="0"
     inkscape:pagecheckerboard="1"
     showgrid="false"
     inkscape:zoom="1.453322"
     inkscape:cx="455.50815"
     inkscape:cy="279.01595"
     inkscape:window-width="1920"
     inkscape:window-height="1001"
     inkscape:window-x="-9"
     inkscape:window-y="-9"
     inkscape:window-maximized="1"
     inkscape:current-layer="g1115" /><g
     id="g1115"
     inkscape:groupmode="layer"
     inkscape:label="template-door-handles"
     transform="matrix(1.3333333,0,0,-1.3333333,0,558.72)"><g
       id="g1117"><g
         id="g1119"
         clip-path="url(#clipPath1123)"><g
           id="g1125"
           transform="translate(57.2732,36.0734)"><path
             d="m 0,0 c -2.362,0 -4.905,0.167 -7.772,0.509 -5.655,0.677 -10.262,3.897 -12.642,8.837 l -0.866,1.8 v 6.533 l 0.473,1.38 c 2.424,7.075 6.581,13.479 12.709,19.58 9.834,9.789 22.059,11.259 30.399,11.514 l 347.872,8.312 c 26.658,2.653 48.315,11.171 66.199,26.035 9.001,7.481 19.148,10.966 31.931,10.966 l 102.844,0.107 c 2.142,0 3.905,0.049 5.459,0.091 1.165,0.032 2.171,0.06 3.046,0.06 2.333,0 6.99,-0.76 8.763,-3.565 1.539,-2.432 3.236,-9.607 -1.536,-17.013 C 578.497,62.144 564.371,46.932 554.089,37.623 534.255,19.667 511.098,9.805 485.26,8.309 L 480.453,8.03 C 457.725,6.712 434.23,5.348 411.041,4.657 L 91.121,0.364 C 83.686,0.33 75.284,0.282 66.494,0.232 47.865,0.126 16.135,0.002 0,0 Z"
             style="fill:#000000;fill-opacity:1;fill-rule:nonzero;stroke:none"
             id="path1127" /></g><g
           id="g1129"
           transform="translate(626.0065,200.5197)"><path
             d="m 0,0 c 2.362,0 4.905,-0.166 7.772,-0.509 5.656,-0.676 10.262,-3.896 12.642,-8.837 l 0.866,-1.799 v -6.534 l -0.472,-1.379 c -2.424,-7.075 -6.582,-13.48 -12.71,-19.58 -9.833,-9.789 -22.059,-11.26 -30.399,-11.515 l -347.872,-8.311 c -26.658,-2.654 -48.315,-11.171 -66.199,-26.036 -9.001,-7.481 -19.147,-10.966 -31.93,-10.966 l -102.845,-0.107 c -2.142,0 -3.904,-0.048 -5.459,-0.091 -1.165,-0.032 -2.171,-0.059 -3.046,-0.059 -2.333,0 -6.989,0.759 -8.763,3.564 -1.538,2.432 -3.236,9.607 1.537,17.013 8.381,13.002 22.507,28.215 32.79,37.523 19.834,17.956 42.991,27.819 68.829,29.314 l 4.806,0.279 c 22.729,1.319 46.223,2.682 69.413,3.374 l 319.919,4.292 c 7.435,0.034 15.837,0.082 24.627,0.133 C -47.865,-0.126 -16.135,-0.001 0,0"
             style="fill:#000000;fill-opacity:1;fill-rule:nonzero;stroke:none"
             id="path1131" /></g><g
           id="g1133"
           transform="translate(57.2732,382.9659)"><path
             d="m 0,0 c -2.362,0 -4.905,-0.166 -7.772,-0.509 -5.655,-0.676 -10.262,-3.896 -12.642,-8.837 l -0.866,-1.799 v -6.534 l 0.473,-1.379 c 2.424,-7.075 6.581,-13.48 12.709,-19.58 9.834,-9.789 22.059,-11.26 30.399,-11.515 l 347.872,-8.311 c 26.658,-2.654 48.315,-11.171 66.199,-26.036 9.001,-7.481 19.148,-10.966 31.931,-10.966 l 102.844,-0.107 c 2.142,0 3.905,-0.048 5.459,-0.091 1.165,-0.032 2.171,-0.059 3.046,-0.059 2.333,0 6.99,0.759 8.763,3.564 1.539,2.432 3.236,9.607 -1.536,17.013 -8.382,13.002 -22.508,28.215 -32.79,37.523 -19.834,17.956 -42.991,27.819 -68.829,29.314 l -4.807,0.279 c -22.728,1.319 -46.223,2.682 -69.412,3.374 L 91.121,-0.364 C 83.686,-0.33 75.284,-0.282 66.494,-0.231 47.865,-0.126 16.135,-0.001 0,0 Z"
             style="fill:#000000;fill-opacity:1;fill-rule:nonzero;stroke:none"
             id="path1135" /></g><g
           id="g1137"
           transform="translate(626.0065,218.5197)"><path
             d="m 0,0 c 2.362,0 4.905,0.167 7.772,0.509 5.656,0.677 10.262,3.897 12.642,8.837 l 0.866,1.8 v 6.533 l -0.472,1.38 c -2.424,7.075 -6.582,13.479 -12.71,19.58 -9.833,9.789 -22.059,11.259 -30.399,11.514 l -347.872,8.312 c -26.658,2.653 -48.315,11.171 -66.199,26.035 -9.001,7.481 -19.147,10.966 -31.93,10.966 l -102.845,0.107 c -2.142,0 -3.904,0.049 -5.459,0.091 -1.165,0.032 -2.171,0.06 -3.046,0.06 -2.333,0 -6.989,-0.76 -8.763,-3.565 -1.538,-2.432 -3.236,-9.607 1.537,-17.013 8.381,-13.002 22.507,-28.214 32.79,-37.523 19.834,-17.956 42.991,-27.818 68.829,-29.314 l 4.806,-0.279 c 22.729,-1.318 46.223,-2.682 69.413,-3.373 L -91.121,0.364 C -83.686,0.33 -75.284,0.282 -66.494,0.232 -47.865,0.126 -16.135,0.002 0,0"
             style="fill:#000000;fill-opacity:1;fill-rule:nonzero;stroke:none"
             id="path1139" /></g><path
           d="m 71.993,191.52 h -36 v 36 h 36 z"
           style="fill:none;stroke:#000000;stroke-width:1;stroke-linecap:butt;stroke-linejoin:miter;stroke-miterlimit:10;stroke-dasharray:none;stroke-opacity:1"
           id="path1141" /><g
           id="g1143"
           transform="translate(46.0012,212.422)"><path
             d="M 0,0 H -0.024 L -1.379,-0.731 -1.583,0.071 0.12,0.983 h 0.9 V -6.812 H 0 Z"
             style="fill:#000000;fill-opacity:1;fill-rule:nonzero;stroke:none"
             id="path1145" /></g><g
           id="g1147"
           transform="translate(49.3142,205.13)"><path
             d="M 0,0 3.346,8.695 H 4.162 L 0.804,0 Z"
             style="fill:#000000;fill-opacity:1;fill-rule:nonzero;stroke:none"
             id="path1149" /></g><g
           id="g1151"
           transform="translate(53.9817,205.6095)"><path
             d="M 0,0 V 0.647 L 0.828,1.451 C 2.819,3.346 3.718,4.354 3.73,5.529 3.73,6.32 3.346,7.052 2.183,7.052 1.475,7.052 0.888,6.692 0.528,6.393 L 0.192,7.136 C 0.732,7.592 1.5,7.928 2.399,7.928 4.078,7.928 4.786,6.776 4.786,5.661 4.786,4.222 3.742,3.059 2.099,1.476 L 1.475,0.899 V 0.876 H 4.978 V 0 Z"
             style="fill:#000000;fill-opacity:1;fill-rule:nonzero;stroke:none"
             id="path1153" /></g><g
           id="g1155"
           transform="translate(63.5681,213.9093)"><path
             d="m 0,0 c -0.276,-0.996 -0.792,-2.291 -1.115,-2.843 l -0.672,-0.072 c 0.264,0.696 0.576,1.943 0.708,2.795 z M -1.775,0 C -2.051,-0.996 -2.566,-2.291 -2.89,-2.843 l -0.672,-0.072 c 0.252,0.696 0.576,1.943 0.708,2.795 z"
             style="fill:#000000;fill-opacity:1;fill-rule:nonzero;stroke:none"
             id="path1157" /></g></g></g></g></svg>
